<?xml version="1.0" encoding="UTF-8"?>
<svg version="1.1" xmlns="http://www.w3.org/2000/svg" width="1161" height="1134">
<path d="M0 0 C0.82862549 0.18006592 1.65725098 0.36013184 2.51098633 0.5456543 C13.94426375 3.13442521 23.92544999 6.29164307 32.75 14.3125 C33.57113281 15.02792969 34.39226563 15.74335938 35.23828125 16.48046875 C37.77911439 18.72056595 40.26988491 21.00550983 42.75 23.3125 C43.4409375 23.93769531 44.131875 24.56289063 44.84375 25.20703125 C51.17663657 31.17552553 57.45708965 38.8950903 60.86206055 46.93994141 C62.63275932 49.67737802 62.63275932 49.67737802 66.29296875 50.08862305 C67.83977255 50.19068937 69.38839254 50.26689846 70.9375 50.32421875 C71.81300003 50.37808746 72.68850006 50.43195618 73.5905304 50.48745728 C75.56466751 50.6088587 77.53941648 50.7205636 79.51455688 50.82437134 C85.42444584 51.1451762 91.32697408 51.57158906 97.23046875 51.9921875 C97.89681021 52.03913317 98.56315166 52.08607883 99.24968529 52.1344471 C119.22501288 53.5502507 139.14162429 55.59827985 159.0625 57.625 C160.09057266 57.72938385 161.11864532 57.8337677 162.1778717 57.9413147 C241.44032419 65.99581311 320.61590777 74.94389147 418.6875 86.5 C419.36209951 86.57979583 420.03669903 86.65959167 420.73174095 86.74180555 C436.04513965 88.55341524 451.35706204 90.37663546 466.66603279 92.22531223 C472.31185984 92.90540294 477.9589616 93.57041543 483.60944653 94.21066189 C486.61527335 94.55235246 489.61994963 94.90346524 492.62445259 95.25658607 C494.52030368 95.47572786 496.41770961 95.68129457 498.31517029 95.8860321 C521.84251778 98.6837307 541.20866736 113.21872454 555.75 131.3125 C563.77059095 141.80240773 569.44749406 153.2652556 574.75 165.3125 C575.141875 166.13492188 575.53375 166.95734375 575.9375 167.8046875 C578.88454986 176.90087024 577.89157217 187.26971269 577.87939453 196.73339844 C577.88073242 198.51966003 577.8824923 200.30592135 577.88463593 202.09218216 C577.88916811 206.99674008 577.88731232 211.90127743 577.88422441 216.80583572 C577.88231147 221.02761937 577.88393569 225.2493988 577.88556135 229.47118235 C577.88996946 241.00997219 577.88693965 252.54874978 577.88056505 264.08753824 C577.87589306 272.62887504 577.87351316 281.17020991 577.87231445 289.71154785 C577.85932775 367.48931256 577.63436301 445.26551607 577.17779541 548.89782715 C577.17186674 550.18730232 577.16593807 551.47677748 577.15982974 552.80532765 C577.13036098 559.1859048 577.10030443 565.56647845 577.06927299 571.94704819 C577.01137388 583.94782093 576.96040868 595.9485321 576.92770386 607.94940186 C576.91472809 612.39530668 576.9009885 616.84120853 576.88671875 621.28710938 C576.88178575 622.88122926 576.88178575 622.88122926 576.87675309 624.50755358 C576.83451884 637.02025925 576.70002277 649.5235036 576.38345623 662.03228903 C576.27170109 666.66923621 576.19521538 671.3069249 576.11256409 675.94446564 C576.03608077 679.24467973 575.8998873 682.53797786 575.75769043 685.83587646 C575.38183309 700.02005571 579.39516211 709.8244395 586.46846581 722.01789474 C589.34493568 727.16825508 591.39530291 732.68664425 593.5 738.1875 C593.95262207 739.36183594 594.40524414 740.53617188 594.87158203 741.74609375 C613.24611187 790.29098625 617.49795647 841.50730906 607.75 892.3125 C607.52006348 893.51519531 607.29012695 894.71789062 607.05322266 895.95703125 C598.50439387 939.46954125 582.49653534 980.61743386 555.03222656 1015.67138672 C553.34177234 1017.83498788 551.66821051 1020.01129042 549.99658203 1022.18945312 C549.16344781 1023.27419192 548.32847542 1024.3575213 547.49169922 1025.43945312 C545.42493565 1028.11380505 543.39072116 1030.80204716 541.390625 1033.52734375 C531.36222456 1047.13377842 519.35293995 1058.34149895 505.75 1068.3125 C505.09660645 1068.79428711 504.44321289 1069.27607422 503.77001953 1069.77246094 C493.13202614 1077.57145729 482.13242404 1084.65278348 470.75 1091.3125 C470.05390625 1091.72177734 469.3578125 1092.13105469 468.640625 1092.55273438 C432.03044255 1113.92014349 395.02908077 1127.26364488 352.75 1131.3125 C352.0394043 1131.38307617 351.32880859 1131.45365234 350.59667969 1131.52636719 C322.98994271 1134.14174227 294.95348582 1132.24431651 267.625 1128 C265.75956543 1127.71733276 265.75956543 1127.71733276 263.85644531 1127.42895508 C248.04945765 1124.82909396 233.49630581 1119.21400179 218.6875 1113.3125 C212.72261352 1110.9409567 206.74689928 1108.60192919 200.75 1106.3125 C200.06319153 1106.04598633 199.37638306 1105.77947266 198.66876221 1105.50488281 C196.70482806 1104.75101965 194.73222633 1104.02762636 192.75390625 1103.3125 C191.63959229 1102.9 190.52527832 1102.4875 189.37719727 1102.0625 C180.69085636 1100.2664147 171.94394378 1103.01985878 163.48022652 1105.04334259 C161.44451357 1105.5298181 159.40698886 1106.00797656 157.36888123 1106.48431396 C152.29466665 1107.67195577 147.22365651 1108.87304587 142.15258789 1110.07403564 C126.76152045 1113.71718999 111.3823001 1117.33324295 95.8359375 1120.26171875 C94.76924332 1120.46569275 93.70254913 1120.66966675 92.60353088 1120.87982178 C78.31878851 1123.47825248 62.43162513 1124.97890993 49.578125 1116.95703125 C45.56603507 1113.86506938 42.76501434 1110.35840788 41.75 1105.3125 C40.83214979 1095.88478572 42.42343343 1089.24536832 46.625 1080.875 C66.64201639 1038.50038962 66.64201639 1038.50038962 68.75 993.3125 C67.76117828 993.26611641 67.76117828 993.26611641 66.75238037 993.21879578 C10.55273271 990.57218236 10.55273271 990.57218236 -10.875 988.8125 C-11.55888794 988.75887299 -12.24277588 988.70524597 -12.9473877 988.6499939 C-20.44427512 988.05356214 -27.85914701 987.15086814 -35.2734375 985.90625 C-35.96643951 985.79422241 -36.65944153 985.68219482 -37.3734436 985.56677246 C-48.331141 983.62084713 -56.07550729 977.95246111 -63.51171875 969.92578125 C-67.73597645 966.00529039 -71.30942546 964.91264091 -77.01835632 964.58552837 C-77.68591672 964.54356601 -78.35347712 964.50160364 -79.04126662 964.45836968 C-81.26743152 964.32167627 -83.49418556 964.20417118 -85.72143555 964.08659363 C-87.31520986 963.99258879 -88.9089138 963.89738424 -90.50255013 963.80106843 C-94.82745651 963.54300401 -99.15314776 963.30147028 -103.47915864 963.06274237 C-108.06787228 962.80656673 -112.6556686 962.53490082 -117.24357605 962.26473522 C-124.8547986 961.81833468 -132.46646919 961.3805305 -140.07855225 960.94906235 C-150.34323429 960.36688559 -160.60661673 959.76430168 -170.86962891 959.1534729 C-174.02484386 958.96594784 -177.18006779 958.77857419 -180.33529663 958.59128284 C-181.50031454 958.52211854 -181.50031454 958.52211854 -182.68886817 958.45155698 C-191.50480398 957.92870956 -200.32123255 957.41433949 -209.13769531 956.90046692 C-212.42077737 956.70908108 -215.70385868 956.51768238 -218.98693848 956.32625771 C-219.80902931 956.27832533 -220.63112015 956.23039296 -221.47812283 956.18100809 C-231.06595828 955.62176219 -240.65358766 955.05900924 -250.24121094 954.49613953 C-252.04404252 954.39031424 -253.84687417 954.28449003 -255.64970589 954.17866689 C-259.28467626 953.9652931 -262.91964579 953.75190495 -266.55461502 953.53851163 C-275.70712951 953.00122864 -284.85965815 952.46418716 -294.01220703 951.92749023 C-294.92402796 951.87402068 -295.83584888 951.82055113 -296.77530074 951.76546129 C-311.7500464 950.88747874 -326.72505271 950.01401009 -341.70013702 949.1418253 C-357.24638288 948.23624711 -372.79229548 947.32509878 -388.3379221 946.40895146 C-397.84834363 945.84866628 -407.35900096 945.29278285 -416.87002116 944.7427521 C-423.33683012 944.36837342 -429.80331152 943.98865491 -436.26955956 943.60471074 C-439.98942316 943.38400079 -443.70938557 943.16565994 -447.42976189 942.95375252 C-451.46245932 942.72399777 -455.49439786 942.482873 -459.52636719 942.24067688 C-460.69389432 942.17598514 -461.86142145 942.11129341 -463.06432819 942.04464132 C-478.95920245 941.06292545 -478.95920245 941.06292545 -485.86328125 937.02734375 C-487.01401123 936.36182495 -487.01401123 936.36182495 -488.18798828 935.68286133 C-488.97157715 935.21001709 -489.75516602 934.73717285 -490.5625 934.25 C-491.38991699 933.75975342 -492.21733398 933.26950684 -493.06982422 932.7644043 C-499.8251469 928.70054231 -506.14059996 924.30602789 -512.25 919.3125 C-513.04535156 918.69246094 -513.84070313 918.07242188 -514.66015625 917.43359375 C-520.70514733 912.46695442 -524.97330325 906.52757377 -529.16796875 899.98730469 C-530.19060763 898.40442953 -531.25052572 896.84582025 -532.3125 895.2890625 C-539.07560616 885.01231135 -547.3116536 870.24445658 -547.40737724 857.70083809 C-547.41698546 856.74765595 -547.42659367 855.79447382 -547.43649304 854.81240737 C-547.44205208 853.76210377 -547.44761112 852.71180017 -547.45333862 851.62966919 C-547.46303708 850.51405865 -547.47273554 849.39844811 -547.48272789 848.24903119 C-547.51404848 844.48391316 -547.53811851 840.71878529 -547.56201172 836.95361328 C-547.57720216 834.94457849 -547.59239847 832.9355437 -547.6080502 830.92651245 C-547.67094653 822.84655266 -547.72414706 814.7665455 -547.77496576 806.68650198 C-547.80458601 801.98665102 -547.83627436 797.28681516 -547.86812973 792.58697891 C-548.36316836 719.06345632 -548.40795567 645.54037191 -548.37791678 572.01548122 C-548.37441355 563.18826528 -548.37263242 554.36104915 -548.37085558 545.53383272 C-548.35400297 463.8875754 -548.29703714 382.24107483 -547.91626704 269.01797295 C-547.88355548 260.19743623 -547.85525463 251.37689255 -547.82867432 242.55633545 C-547.79657496 232.00274671 -547.75702052 221.44921752 -547.70741057 210.89569598 C-547.68260711 205.61075364 -547.66050698 200.32584447 -547.6466217 195.04086113 C-547.63386135 190.25735923 -547.61190987 185.47398993 -547.58260894 180.69056153 C-547.5736341 178.97738754 -547.56787426 177.26419278 -547.56578851 175.55099654 C-547.5475143 162.87660366 -547.36789566 150.32830159 -541.8125 138.6875 C-541.46541992 137.93807129 -541.11833984 137.18864258 -540.76074219 136.41650391 C-530.45232577 114.67683831 -517.57824422 94.61424837 -498.0625 80.1875 C-497.28841797 79.59324219 -496.51433594 78.99898438 -495.71679688 78.38671875 C-477.41001114 64.80281386 -452.81231936 63.05988574 -430.87109375 59.75 C-429.20451974 59.49627732 -427.53798719 59.24228226 -425.87149048 58.98805237 C-422.10648579 58.41426934 -418.34119945 57.8423792 -414.57571411 57.27175903 C-407.71133558 56.23136043 -400.84772175 55.18596106 -393.98413086 54.14038086 C-383.641778 52.56523001 -373.29924164 50.99129141 -362.95653725 49.41845059 C-310.8661024 41.4968362 -258.77885096 33.5548622 -206.69921875 25.5625 C-205.63849435 25.399721 -204.57776995 25.23694201 -203.48490238 25.06923032 C-182.44858636 21.84091617 -161.41254396 18.61082161 -140.37689584 15.37815821 C-132.45579075 14.16088514 -124.53462215 12.94402594 -116.61341482 11.7274183 C-112.03689124 11.02447555 -107.46040893 10.3212668 -102.88403893 9.61732483 C-102.03002505 9.4859759 -101.17601117 9.35462697 -100.29611808 9.21929777 C-98.59938906 8.95833432 -96.90266661 8.69732807 -95.20595092 8.43627799 C-91.10033313 7.80500821 -86.99439538 7.17596979 -82.88770199 6.55173302 C-81.27678215 6.30673846 -79.66586886 6.06170079 -78.05496216 5.81661987 C-77.25967694 5.69566023 -76.46439172 5.57470059 -75.64500695 5.45007551 C-70.50179838 4.66481168 -65.36286713 3.85540519 -60.225591 3.03225678 C-56.64001244 2.45970691 -53.05276669 1.89806853 -49.46523654 1.33789265 C-47.78065195 1.07219574 -46.09680317 0.80177683 -44.41385186 0.52592361 C-29.72309104 -1.87896319 -14.673683 -3.36775643 0 0 Z " fill="#FAFBFD" transform="translate(548.25,1.6875)"/>
<path d="M0 0 C9.97330579 -0.22293007 19.79263249 0.38845189 29.72817993 1.16748047 C34.28810128 1.52499353 38.84918508 1.86712309 43.41015625 2.2109375 C44.32051132 2.27996277 45.23086639 2.34898804 46.16880798 2.42010498 C54.04636229 3.01359167 61.92739273 3.51679298 69.8125 4 C109.84558192 6.53446104 149.77651252 10.59299353 189.60125732 15.37051392 C194.87291309 15.99829088 200.14740387 16.49753999 205.4375 16.9375 C216.99291271 17.94411217 228.5024022 19.29062481 240.02050781 20.65185547 C244.21980929 21.14253098 248.42212635 21.60364269 252.625 22.0625 C258.39944782 22.69956686 264.17053126 23.3607584 269.9375 24.0625 C271.22527344 24.21847656 272.51304687 24.37445313 273.83984375 24.53515625 C277 25 277 25 280 26 C282.41869401 26.31217794 284.82837644 26.58705651 287.25390625 26.83203125 C288.750191 26.99004854 290.24644633 27.14834469 291.74267578 27.30688477 C292.92171478 27.43028732 292.92171478 27.43028732 294.12457275 27.55618286 C307.05096936 28.91522957 319.89466882 30.48620166 332.72802734 32.56518555 C343.54060029 34.29701388 354.40286753 35.48597114 365.28417969 36.69287109 C370.42232654 37.27393804 375.5443154 37.96245574 380.66552734 38.67578125 C383.64756757 39.08993618 386.63044631 39.49785852 389.61328125 39.90625 C395.90155494 40.76840903 402.1888371 41.63753695 408.47558594 42.51074219 C410.68183691 42.8170131 412.88819964 43.1224813 415.09472656 43.42675781 C420.28940742 44.14394054 425.48052415 44.87981817 430.66699219 45.65429688 C432.20846762 45.8827114 433.75079216 46.10547527 435.29394531 46.32226562 C459.87461039 49.80782318 480.86478111 61.65831732 496.16992188 81.44213867 C510.64279241 101.16008469 514.47775915 122.54532011 514.31797791 146.44636536 C514.31481949 148.60614948 514.31302328 150.76593594 514.31246287 152.9257223 C514.30832451 157.60205419 514.29462553 162.27822593 514.27349281 166.95451164 C514.23911741 174.56551196 514.22558345 182.17647183 514.2144165 189.78753662 C514.1974839 200.12305684 514.17292092 210.45852544 514.1420043 220.79401291 C514.09001059 238.25645406 514.0694433 255.71882959 514.05931569 273.18134028 C514.05710955 276.90484901 514.05459932 280.62835753 514.05209774 284.35186607 C514.05160036 285.09403686 514.05110297 285.83620766 514.05059052 286.60086848 C514.0495813 288.10474986 514.04856977 289.60863124 514.04755593 291.11251262 C514.0465423 292.62191908 514.04553761 294.13132555 514.04454181 295.64073202 C514.03279267 313.42284715 514.01574375 331.2049544 513.99438477 348.98706055 C513.99346184 349.76462358 513.99253892 350.54218661 513.99158802 351.34331215 C513.96144933 376.53854545 513.89995381 401.73360399 513.82531393 426.92874047 C513.74868284 452.87381427 513.71239488 478.81867573 513.72303225 504.76386608 C513.72449986 508.43512887 513.7254673 512.10639162 513.72610664 515.77765465 C513.72624122 516.50007207 513.72637579 517.22248949 513.72651444 517.96679835 C513.72741407 529.5451869 513.68561335 541.1230382 513.62685655 552.70126146 C513.56849092 564.35930116 513.55475794 576.01662022 513.58269285 587.67479072 C513.59644816 593.97919904 513.59116895 600.28200165 513.53253365 606.58618736 C512.65650604 641.13150682 512.65650604 641.13150682 525.49870694 672.43198621 C530.40344643 680.82171302 532.99960317 690.79379324 536 700 C536.25330078 700.76731445 536.50660156 701.53462891 536.76757812 702.32519531 C540.14843722 712.78081511 542.19243486 723.53504931 544.25 734.3125 C544.38119232 734.99273224 544.51238464 735.67296448 544.64755249 736.37380981 C547.60534014 751.8444339 548.18656825 766.93899563 548.18530273 782.64526367 C548.18748306 785.66404463 548.20568248 788.68245548 548.22460938 791.70117188 C548.27431742 808.29252673 546.8219098 824.16063312 543.5625 840.4375 C543.35818359 841.50419922 543.15386719 842.57089844 542.94335938 843.66992188 C539.53436815 861.07595494 534.21869054 878.1839758 527.40625 894.5546875 C526.53732218 896.68356066 525.71449403 898.83272576 524.96875 901.0078125 C520.91238243 912.77742447 514.30768079 923.32458374 508 934 C507.54399414 934.77375977 507.08798828 935.54751953 506.61816406 936.34472656 C500.43434897 946.75279776 493.51828979 956.51421534 486 966 C485.54995605 966.5686377 485.09991211 967.13727539 484.63623047 967.72314453 C478.07813341 975.90207323 470.81858845 983.3767898 463.4375 990.8125 C462.57519775 991.68414795 461.71289551 992.5557959 460.82446289 993.45385742 C454.8590974 999.38985078 448.59775143 1004.7804947 442 1010 C441.07924683 1010.74020386 441.07924683 1010.74020386 440.13989258 1011.49536133 C394.67030501 1047.93200728 333.2608835 1071.9085827 274.671875 1072.203125 C273.72862869 1072.21022995 272.78538239 1072.2173349 271.81355286 1072.22465515 C232.96320237 1072.45098339 232.96320237 1072.45098339 216 1069 C214.87867676 1068.7848877 213.75735352 1068.56977539 212.60205078 1068.34814453 C197.23945498 1065.35527274 182.33920399 1061.41187759 167.5 1056.4375 C166.49141937 1056.09948364 166.49141937 1056.09948364 165.46246338 1055.75463867 C156.92173741 1052.86965921 148.53844719 1049.6812564 140.20019531 1046.25561523 C135.76091421 1044.51383749 131.73988749 1043.45235441 127 1043 C125.81019531 1042.85949219 124.62039063 1042.71898437 123.39453125 1042.57421875 C110.72102543 1041.59647177 99.08500936 1044.98941963 86.99633789 1048.29052734 C76.06653309 1051.26884167 65.1194378 1053.77262072 54 1055.9375 C53.27014893 1056.08043488 52.54029785 1056.22336975 51.78833008 1056.37063599 C47.19600038 1057.26758758 42.59931959 1058.1395023 38 1059 C36.9584375 1059.1973877 35.916875 1059.39477539 34.84375 1059.59814453 C6.84637981 1064.82361524 6.84637981 1064.82361524 -2.8125 1060.3125 C-7.13274892 1057.17820176 -9.91604112 1053.89527531 -12 1049 C-13.50231459 1039.33013285 -10.40197868 1031.81885286 -6.375 1023.1875 C-5.81660871 1021.94658963 -5.26071545 1020.70455228 -4.70727539 1019.46142578 C-3.62946867 1017.0439733 -2.54233787 1014.63163877 -1.44873047 1012.22119141 C2.68069407 1003.03958921 6.38378738 993.73173597 9 984 C9.31710937 982.84886719 9.63421875 981.69773437 9.9609375 980.51171875 C10.65933421 977.94130377 11.34716618 975.37103259 12.015625 972.79296875 C12.6325869 970.41570681 13.26554141 968.04247568 13.921875 965.67578125 C18.64291182 947.57105044 15.02718642 934.19711676 6.35864258 918.29101562 C3.60591004 913.23212388 1.24058275 908.1358521 -0.875 902.7734375 C-2.05322549 899.86878437 -3.38880073 897.07294167 -4.75 894.25 C-6.84059626 889.73457423 -7.71951411 885.9552507 -8 881 C-8.66 881 -9.32 881 -10 881 C-11.12909751 877.02198459 -12.25252445 873.04238852 -13.375 869.0625 C-13.85066406 867.38704102 -13.85066406 867.38704102 -14.3359375 865.67773438 C-15.89591178 860.13657573 -17.36105293 854.61252267 -18.55541992 848.98120117 C-19.23555151 845.95030177 -20.14365881 842.98515725 -21 840 C-22.9015113 831.81167383 -24.18702127 823.73033416 -24.578125 815.3359375 C-24.61799026 814.52416046 -24.65785553 813.71238342 -24.69892883 812.87600708 C-25.10694797 803.82042386 -25.18608801 794.76530164 -25.18530273 785.70166016 C-25.18750391 782.8699673 -25.20580351 780.03865663 -25.22460938 777.20703125 C-25.25865636 766.04374099 -24.91175979 755.02197953 -23 744 C-22.67 743.67 -22.34 743.34 -22 743 C-21.55307796 739.85276748 -21.17943174 736.70687279 -20.83789062 733.546875 C-20.41289297 729.99486206 -20.0214312 728.03214681 -18 725 C-17.47595642 723.11014782 -17.47595642 723.11014782 -17.18359375 721.05859375 C-17.05919922 720.31029297 -16.93480469 719.56199219 -16.80664062 718.79101562 C-16.68482422 718.01435547 -16.56300781 717.23769531 -16.4375 716.4375 C-15.11632156 708.23264312 -15.11632156 708.23264312 -14 706 C-15.24442871 706.01015137 -16.48885742 706.02030273 -17.77099609 706.03076172 C-32.45365288 706.111274 -47.1074166 705.76044209 -61.78076172 705.25537109 C-65.65439611 705.12400308 -69.52829652 705.00520755 -73.40234375 704.88671875 C-75.9062757 704.80284696 -78.41018308 704.71823812 -80.9140625 704.6328125 C-82.05179108 704.59938751 -83.18951965 704.56596252 -84.36172485 704.53152466 C-96.7820737 704.07668334 -106.8733984 703.64162972 -115.6875 694.1875 C-120.54140517 688.35637056 -122.60478597 683.07347519 -122.3515625 675.48828125 C-121.42563605 668.93477961 -117.54407454 663.64975069 -113 659 C-107.79961121 655.45273899 -103.95964697 654.42668436 -97.6328125 654.57421875 C-96.82122177 654.577099 -96.00963104 654.57997925 -95.17344666 654.58294678 C-92.49005577 654.59792693 -89.80803837 654.64227643 -87.125 654.6875 C-85.22974919 654.70528526 -83.33448421 654.72161301 -81.43920898 654.73657227 C-76.35591945 654.78370063 -71.27349783 654.85976117 -66.19073486 654.94604492 C-62.96297622 655.00062607 -59.73517072 655.05052217 -56.50732422 655.09960938 C-35.65339818 655.42380956 -14.8261306 655.83736582 6 657 C6.85034637 653.30402564 7.13442923 649.87305911 7.15821838 646.08378601 C7.1680072 644.89893112 7.17779602 643.71407623 7.18788147 642.49331665 C7.19363693 641.20218964 7.1993924 639.91106262 7.20532227 638.58081055 C7.2149075 637.20077729 7.22491796 635.82074694 7.23532104 634.4407196 C7.26230624 630.70148409 7.28335028 626.96223604 7.30332303 623.22295737 C7.32522207 619.31249961 7.35259156 615.40208022 7.37937927 611.49165344 C7.42925325 604.08990381 7.47421168 596.68813281 7.51740164 589.28634149 C7.56681932 580.85830738 7.62172062 572.43031177 7.67708123 564.00231493 C7.79081997 546.66824556 7.8976766 529.33414043 8 512 C7.16207838 512.00553076 7.16207838 512.00553076 6.30722904 512.01117325 C-7.31523791 512.09969542 -20.93765413 512.16553676 -34.56034756 512.20724869 C-41.14833248 512.22810029 -47.73610939 512.25637431 -54.32397461 512.30175781 C-60.68469849 512.34530105 -67.04522261 512.36915537 -73.40608406 512.37950897 C-75.82971401 512.38688503 -78.25333334 512.40128872 -80.67687798 512.42292023 C-84.07836184 512.45206588 -87.47902607 512.4559512 -90.88061523 512.45410156 C-91.87683899 512.46848267 -92.87306274 512.48286377 -93.8994751 512.49768066 C-101.36231398 512.45392938 -107.26944916 510.76945978 -113.3046875 506.2890625 C-113.82289063 505.73992187 -114.34109375 505.19078125 -114.875 504.625 C-115.40867187 504.08101562 -115.94234375 503.53703125 -116.4921875 502.9765625 C-121.80238825 496.01552213 -121.71025297 489.44411864 -121 481 C-119.60895893 474.41573896 -114.73437234 468.9531231 -109.375 465.125 C-105.63705952 463.35439662 -102.42417824 462.87508577 -98.30499268 462.87974548 C-97.36746784 462.87836799 -96.42994301 462.87699049 -95.46400833 462.87557125 C-94.43851254 462.87916936 -93.41301674 462.88276747 -92.35644531 462.88647461 C-91.25571056 462.88635407 -90.15497581 462.88623354 -89.02088547 462.88610935 C-85.45661145 462.88685594 -81.89238967 462.8944727 -78.328125 462.90234375 C-76.1280927 462.90381395 -73.92806006 462.90483418 -71.72802734 462.90539551 C-63.56867956 462.9106393 -55.40933927 462.92460049 -47.25 462.9375 C-19.90125 462.9684375 -19.90125 462.9684375 8 463 C8 415.15 8 367.3 8 318 C-20.62818973 318.32772269 -20.62818973 318.32772269 -49.25634766 318.65820312 C-54.86987305 318.72167969 -54.86987305 318.72167969 -57.52108765 318.75134277 C-59.32179275 318.77171909 -61.1224925 318.79257167 -62.92318726 318.81384277 C-67.47249054 318.86741495 -72.02159162 318.91435727 -76.57110596 318.94555664 C-80.37302155 318.97388633 -84.17073699 319.05259852 -87.97137451 319.15405273 C-89.93582627 319.19088375 -91.90028335 319.22743177 -93.86474609 319.26367188 C-94.76277262 319.29636421 -95.66079914 319.32905655 -96.58603859 319.36273956 C-103.66157979 319.46000775 -108.77407377 317.71777148 -114.20703125 313.140625 C-119.57686372 306.81702666 -122.74610186 300.83104698 -122.41015625 292.359375 C-121.05289082 284.55186719 -116.24791904 277.73936716 -110 273 C-105.45914121 270.3623931 -101.94164306 269.56082775 -96.71484375 269.3046875 C-96.01847305 269.26691193 -95.32210236 269.22913635 -94.60462952 269.19021606 C-92.38268311 269.07266193 -90.1603642 268.97349207 -87.9375 268.875 C-86.50449494 268.8019951 -85.07155078 268.72778421 -83.63867188 268.65234375 C-80.74023588 268.50183028 -77.8415523 268.36348976 -74.94212341 268.23361206 C-71.80935759 268.09005225 -68.67890754 267.92691414 -65.5483551 267.7414856 C-50.0944442 266.86091274 -34.66204406 266.88583045 -19.1875 266.9375 C-16.53711023 266.94252982 -13.88671952 266.94709008 -11.23632812 266.95117188 C-4.82419792 266.96204905 1.58789649 266.97866744 8 267 C7.9407669 237.35170522 7.86634613 207.70347763 7.77101372 178.05527708 C7.75974689 174.54718703 7.74860822 171.03909658 7.73754883 167.53100586 C7.7342433 166.48350307 7.7342433 166.48350307 7.730871 165.4148386 C7.69559366 154.13901279 7.67067573 142.86318703 7.64965298 131.58732665 C7.62781441 119.99892263 7.59446955 108.41059316 7.55129844 96.82224888 C7.52743741 90.32097173 7.50866203 83.81977272 7.50238609 77.31845284 C7.49630298 71.18793384 7.47618728 65.0576146 7.44572449 58.9271698 C7.43699574 56.68803232 7.43321085 54.44886868 7.43499184 52.20971489 C7.44385245 35.91627828 6.5128648 20.7649323 0.76953125 5.3203125 C0 3 0 3 0 0 Z " fill="#DBEAFD" transform="translate(607,57)"/>
<path d="M0 0 C0.84876709 0.06303314 1.69753418 0.12606628 2.57202148 0.19100952 C5.00984786 0.37539361 7.44633569 0.57207486 9.8828125 0.7734375 C10.98141098 0.85642342 10.98141098 0.85642342 12.10220337 0.94108582 C16.04364821 1.28465288 19.27621935 1.98859046 22.875 3.625 C24.90969327 3.99399631 24.90969327 3.99399631 26.875 4.125 C29.20967041 4.31327987 30.91829491 4.64288103 33.09765625 5.54296875 C36.76071567 6.97006785 40.46829187 7.65663253 44.3125 8.4375 C52.46186255 10.17592103 60.09016968 12.63891773 67.875 15.625 C69.11378906 16.05425781 70.35257813 16.48351562 71.62890625 16.92578125 C81.7687221 20.46073961 91.08209428 25.14071346 100.48144531 30.31054688 C102.83186221 31.6013103 105.19201558 32.87246258 107.5546875 34.140625 C133.46453624 48.15368393 160.12451214 66.87985265 179.1796875 89.6171875 C181.11763816 91.91236409 183.15034967 94.10499563 185.1875 96.3125 C211.69565109 125.820729 230.58276941 162.13926323 242.875 199.625 C243.12975098 200.39521484 243.38450195 201.16542969 243.64697266 201.95898438 C247.02595244 212.41142363 249.06811563 223.16361515 251.125 233.9375 C251.25619232 234.61773224 251.38738464 235.29796448 251.52255249 235.99880981 C254.48034014 251.4694339 255.06156825 266.56399563 255.06030273 282.27026367 C255.06248306 285.28904463 255.08068248 288.30745548 255.09960938 291.32617188 C255.14931742 307.91752673 253.6969098 323.78563312 250.4375 340.0625 C250.23318359 341.12919922 250.02886719 342.19589844 249.81835938 343.29492188 C246.40936815 360.70095494 241.09369054 377.8089758 234.28125 394.1796875 C233.41232218 396.30856066 232.58949403 398.45772576 231.84375 400.6328125 C227.78738243 412.40242447 221.18268079 422.94958374 214.875 433.625 C214.41899414 434.39875977 213.96298828 435.17251953 213.49316406 435.96972656 C207.30934897 446.37779776 200.39328979 456.13921534 192.875 465.625 C192.19993408 466.47795654 192.19993408 466.47795654 191.51123047 467.34814453 C184.95313341 475.52707323 177.69358845 483.0017898 170.3125 490.4375 C169.45019775 491.30914795 168.58789551 492.1807959 167.69946289 493.07885742 C161.7340974 499.01485078 155.47275143 504.4054947 148.875 509.625 C147.95424683 510.36520386 147.95424683 510.36520386 147.01489258 511.12036133 C101.54530501 547.55700728 40.1358835 571.5335827 -18.453125 571.828125 C-19.39637131 571.83522995 -20.33961761 571.8423349 -21.31144714 571.84965515 C-60.16179763 572.07598339 -60.16179763 572.07598339 -77.125 568.625 C-78.80698486 568.30233154 -78.80698486 568.30233154 -80.52294922 567.97314453 C-95.88554502 564.98027274 -110.78579601 561.03687759 -125.625 556.0625 C-126.29738708 555.83715576 -126.96977417 555.61181152 -127.66253662 555.37963867 C-136.20326259 552.49465921 -144.58655281 549.3062564 -152.92480469 545.88061523 C-157.36408579 544.13883749 -161.38511251 543.07735441 -166.125 542.625 C-167.31480469 542.48449219 -168.50460937 542.34398437 -169.73046875 542.19921875 C-182.40397457 541.22147177 -194.03999064 544.61441963 -206.12866211 547.91552734 C-217.05846691 550.89384167 -228.0055622 553.39762072 -239.125 555.5625 C-239.85485107 555.70543488 -240.58470215 555.84836975 -241.33666992 555.99563599 C-245.92899962 556.89258758 -250.52568041 557.7645023 -255.125 558.625 C-256.1665625 558.8223877 -257.208125 559.01977539 -258.28125 559.22314453 C-286.27862019 564.44861524 -286.27862019 564.44861524 -295.9375 559.9375 C-300.25774892 556.80320176 -303.04104112 553.52027531 -305.125 548.625 C-306.62731459 538.95513285 -303.52697868 531.44385286 -299.5 522.8125 C-298.94160871 521.57158963 -298.38571545 520.32955228 -297.83227539 519.08642578 C-296.75446867 516.6689733 -295.66733787 514.25663877 -294.57373047 511.84619141 C-290.44430593 502.66458921 -286.74121262 493.35673597 -284.125 483.625 C-283.80789063 482.47386719 -283.49078125 481.32273437 -283.1640625 480.13671875 C-282.46566579 477.56630377 -281.77783382 474.99603259 -281.109375 472.41796875 C-280.4924131 470.04070681 -279.85945859 467.66747568 -279.203125 465.30078125 C-274.48208818 447.19605044 -278.09781358 433.82211676 -286.76635742 417.91601562 C-289.51908996 412.85712388 -291.88441725 407.7608521 -294 402.3984375 C-295.17822549 399.49378437 -296.51380073 396.69794167 -297.875 393.875 C-299.96559626 389.35957423 -300.84451411 385.5802507 -301.125 380.625 C-301.785 380.625 -302.445 380.625 -303.125 380.625 C-304.25409751 376.64698459 -305.37752445 372.66738852 -306.5 368.6875 C-306.81710937 367.57052734 -307.13421875 366.45355469 -307.4609375 365.30273438 C-309.02091178 359.76157573 -310.48605293 354.23752267 -311.68041992 348.60620117 C-312.36055151 345.57530177 -313.26865881 342.61015725 -314.125 339.625 C-316.0265113 331.43667383 -317.31202127 323.35533416 -317.703125 314.9609375 C-317.74299026 314.14916046 -317.78285553 313.33738342 -317.82392883 312.50100708 C-318.23194797 303.44542386 -318.31108801 294.39030164 -318.31030273 285.32666016 C-318.31250391 282.4949673 -318.33080351 279.66365663 -318.34960938 276.83203125 C-318.38365636 265.66874099 -318.03675979 254.64697953 -316.125 243.625 C-315.795 243.295 -315.465 242.965 -315.125 242.625 C-314.67807796 239.47776748 -314.30443174 236.33187279 -313.96289062 233.171875 C-313.53789297 229.61986206 -313.1464312 227.65714681 -311.125 224.625 C-310.60095642 222.73514782 -310.60095642 222.73514782 -310.30859375 220.68359375 C-310.18419922 219.93529297 -310.05980469 219.18699219 -309.93164062 218.41601562 C-309.80982422 217.63935547 -309.68800781 216.86269531 -309.5625 216.0625 C-308.24132156 207.85764312 -308.24132156 207.85764312 -307.125 205.625 C-308.99164307 205.64022705 -308.99164307 205.64022705 -310.89599609 205.65576172 C-325.57865288 205.736274 -340.2324166 205.38544209 -354.90576172 204.88037109 C-358.77939611 204.74900308 -362.65329652 204.63020755 -366.52734375 204.51171875 C-369.0312757 204.42784696 -371.53518308 204.34323812 -374.0390625 204.2578125 C-375.17679108 204.22438751 -376.31451965 204.19096252 -377.48672485 204.15652466 C-389.9070737 203.70168334 -399.9983984 203.26662972 -408.8125 193.8125 C-413.66640517 187.98137056 -415.72978597 182.69847519 -415.4765625 175.11328125 C-414.55063605 168.55977961 -410.66907454 163.27475069 -406.125 158.625 C-400.92461121 155.07773899 -397.08464697 154.05168436 -390.7578125 154.19921875 C-389.94622177 154.202099 -389.13463104 154.20497925 -388.29844666 154.20794678 C-385.61505577 154.22292693 -382.93303837 154.26727643 -380.25 154.3125 C-378.35474919 154.33028526 -376.45948421 154.34661301 -374.56420898 154.36157227 C-369.48091945 154.40870063 -364.39849783 154.48476117 -359.31573486 154.57104492 C-356.08797622 154.62562607 -352.86017072 154.67552217 -349.63232422 154.72460938 C-328.77839818 155.04880956 -307.9511306 155.46236582 -287.125 156.625 C-286.99303223 155.86074707 -286.86106445 155.09649414 -286.72509766 154.30908203 C-285.9528764 150.85513555 -284.39800086 148.48257278 -282.5 145.5 C-282.14534668 144.93885498 -281.79069336 144.37770996 -281.42529297 143.79956055 C-280.69238403 142.64181231 -279.95619986 141.48613113 -279.21679688 140.33251953 C-278.17033031 138.6958945 -277.1394809 137.0493154 -276.109375 135.40234375 C-271.41166078 127.91166078 -271.41166078 127.91166078 -269.125 125.625 C-268.69316406 124.56796875 -268.26132812 123.5109375 -267.81640625 122.421875 C-266.14796147 118.38588726 -263.80494891 115.24596677 -261.0625 111.875 C-260.58006836 111.27155762 -260.09763672 110.66811523 -259.60058594 110.04638672 C-255.70230553 105.22000493 -251.60480358 100.61265684 -247.3828125 96.06640625 C-245.45156147 93.97811578 -243.5918194 91.85408466 -241.75 89.6875 C-233.65538344 80.41479371 -224.80242815 72.21565119 -215.125 64.625 C-214.03285637 63.74342219 -212.94175404 62.86055319 -211.8515625 61.9765625 C-203.60101235 55.33093633 -195.03198934 49.35537077 -186.125 43.625 C-185.30773437 43.0990625 -184.49046875 42.573125 -183.6484375 42.03125 C-169.6345905 33.15761715 -154.93849114 25.21148629 -139.25 19.78125 C-136.02348699 18.72452149 -136.02348699 18.72452149 -133.125 16.625 C-131.05056633 16.10014329 -128.97538671 15.74576255 -126.8671875 15.3828125 C-124.3923445 14.69888153 -122.38342921 13.83776596 -120.07421875 12.7421875 C-114.57463626 10.23939028 -108.94523803 8.92539472 -103.0625 7.625 C-101.92780273 7.37008789 -100.79310547 7.11517578 -99.62402344 6.85253906 C-66.21749483 -0.50004966 -34.05160527 -2.59594299 0 0 Z " fill="#529BFC" transform="translate(900.125,557.375)"/>
<path d="M0 0 C9.13504246 6.00745165 15.4657632 12.90607678 18.90234375 23.328125 C20.88729512 34.12009362 19.772887 44.35620448 13.94921875 53.6875 C8.25431459 61.80999065 1.80037888 66.56449605 -7.6953125 69.515625 C-8.3553125 69.515625 -9.0153125 69.515625 -9.6953125 69.515625 C-9.6953125 78.095625 -9.6953125 86.675625 -9.6953125 95.515625 C-7.65859375 95.49991455 -5.621875 95.4842041 -3.5234375 95.46801758 C3.26975722 95.41790192 10.06296097 95.38501044 16.85629272 95.36018848 C20.96777268 95.34465303 25.07906035 95.32364195 29.19042969 95.28930664 C33.17160888 95.25627357 37.15260528 95.23868138 41.13391113 95.23099327 C42.63906729 95.22552736 44.14421552 95.21485897 45.64929199 95.19843483 C78.50267319 94.85477792 108.15414321 107.48191297 131.890625 130.03515625 C148.57124892 147.17463229 159.72788184 168.35547914 165.3046875 191.515625 C165.67400391 193.02189453 165.67400391 193.02189453 166.05078125 194.55859375 C171.96105749 224.76214337 164.66324757 257.63834517 148.3046875 283.515625 C128.94892997 312.2085185 100.2140682 330.8670931 66.3046875 337.515625 C57.85118401 338.64031788 49.38949135 338.66384826 40.87573242 338.66088867 C39.45841891 338.663888 38.04110621 338.66729228 36.62379456 338.67106628 C32.80544145 338.67983099 28.98711081 338.68224117 25.16874862 338.68288207 C22.77503147 338.68359677 20.38131989 338.68573897 17.98760414 338.68837929 C9.61372139 338.69760722 1.23985447 338.70171731 -7.1340332 338.70092773 C-14.90305842 338.70032737 -22.67201411 338.71087769 -30.44102174 338.7266714 C-37.14289637 338.73980353 -43.84474843 338.74510928 -50.54663581 338.74447232 C-54.53535045 338.74421904 -58.52400318 338.74697584 -62.51270485 338.75765038 C-66.26798215 338.76742774 -70.02313954 338.76734555 -73.7784214 338.76013374 C-75.78904435 338.75861236 -77.79966755 338.76686637 -79.81027222 338.77557373 C-91.08416977 338.73718466 -102.26010603 337.66569864 -113.0703125 334.328125 C-113.77309326 334.11454346 -114.47587402 333.90096191 -115.19995117 333.6809082 C-127.79541307 329.71397753 -139.01423933 324.34526123 -149.6953125 316.515625 C-150.78972656 315.75572266 -150.78972656 315.75572266 -151.90625 314.98046875 C-176.59819289 297.03520914 -194.54454054 268.22618156 -199.96484375 238.203125 C-204.92947688 204.7749984 -197.51659892 172.01989383 -177.6640625 144.72265625 C-175.73793389 142.25767024 -173.74210247 139.8809815 -171.6953125 137.515625 C-171.03273438 136.70867187 -170.37015625 135.90171875 -169.6875 135.0703125 C-151.42924725 113.57812568 -123.58270014 99.01345084 -95.6953125 95.515625 C-93.25900767 95.4327981 -90.82076512 95.39775432 -88.38305664 95.40209961 C-87.68953094 95.40195358 -86.99600525 95.40180756 -86.28146362 95.4016571 C-84.01443227 95.4023476 -81.74748555 95.41009908 -79.48046875 95.41796875 C-77.89863632 95.419836 -76.31680331 95.42125845 -74.73497009 95.42225647 C-70.59054949 95.42605745 -66.44616445 95.43586686 -62.30175781 95.44696045 C-58.06510906 95.4572268 -53.82845451 95.46176524 -49.59179688 95.46679688 C-41.29295068 95.47749149 -32.99414013 95.49506847 -24.6953125 95.515625 C-25.0253125 86.935625 -25.3553125 78.355625 -25.6953125 69.515625 C-28.3353125 68.525625 -30.9753125 67.535625 -33.6953125 66.515625 C-42.62622439 62.10669381 -49.05104544 54.38752692 -52.6953125 45.140625 C-55.499095 34.96325865 -54.27538964 24.19639574 -49.32421875 14.95703125 C-44.5223073 7.39142975 -37.89555774 1.4032585 -29.40234375 -1.6796875 C-20.25448735 -3.66541818 -8.55931534 -4.20561515 0 0 Z " fill="#F2F6FD" transform="translate(882.6953125,666.484375)"/>
<path d="M0 0 C6.17679119 0.91759197 12.35764359 1.65423809 18.56640625 2.3203125 C19.98613991 2.4735347 19.98613991 2.4735347 21.43455505 2.62985229 C25.36047745 3.0520758 29.28668681 3.47133903 33.21362305 3.8840332 C43.02704381 4.91904562 52.82231159 5.98414186 62.5546875 7.6328125 C63.23578079 7.74394882 63.91687408 7.85508514 64.61860657 7.96958923 C73.70102215 9.60064412 79.05327847 14.82996653 85.12890625 21.40234375 C91.67180432 31.20968561 91.54552983 41.1056037 91.484375 52.48046875 C91.48707499 54.25826224 91.49096161 56.03605429 91.49597168 57.81384277 C91.50184292 61.52561613 91.49338094 65.23700239 91.47460938 68.94873047 C91.45182113 73.68288748 91.46495704 78.41613712 91.48889923 83.15026093 C91.5034218 86.81710525 91.49872179 90.48373795 91.48838806 94.15058899 C91.48573858 95.89512746 91.48892722 97.63968578 91.49830627 99.38420105 C91.5423274 109.87104587 91.54900556 119.39186805 84.703125 127.94921875 C67.6993207 141.47497217 45.91311605 135.57282269 25.6819458 133.47192383 C22.95413014 133.19102692 20.22542584 132.91938813 17.49666119 132.64789009 C14.19389175 132.31827837 10.89189648 131.9812495 7.58984375 131.64453125 C6.384384 131.52361115 5.17892426 131.40269104 3.93693542 131.27810669 C-21.65181631 128.60571136 -21.65181631 128.60571136 -31.4765625 118.1640625 C-37.44487077 110.45870928 -39.18843457 102.83645312 -39.22387695 93.27636719 C-39.23044815 92.50005447 -39.23701935 91.72374176 -39.24378967 90.92390442 C-39.26343738 88.36463306 -39.27516614 85.80542015 -39.28515625 83.24609375 C-39.28923178 82.36827492 -39.2933073 81.49045609 -39.29750633 80.58603668 C-39.31833068 75.93968444 -39.33264811 71.2933614 -39.34204102 66.64697266 C-39.35309823 61.86447354 -39.38750059 57.08244059 -39.42721272 52.30010605 C-39.45343691 48.60761691 -39.46173798 44.91523794 -39.46532249 41.22266388 C-39.47017339 39.46052146 -39.48174439 37.69838346 -39.50036049 35.9363327 C-39.61937322 23.92517146 -39.00229046 14.76079512 -30.5546875 5.5703125 C-21.98878923 -2.57394829 -10.91266986 -1.7261954 0 0 Z " fill="#A0C7FC" transform="translate(956.046875,196.86328125)"/>
<path d="M0 0 C5.17674943 4.19070192 8.5739546 8.95554003 10.640625 15.328125 C10.92021817 18.18169861 11.0619271 20.81210868 11.04467773 23.65917969 C11.05154099 24.46183258 11.05840424 25.26448547 11.06547546 26.09146118 C11.08367835 28.72782416 11.07991396 31.36358804 11.07421875 34 C11.07878502 35.84694612 11.08409191 37.69389054 11.09010315 39.54083252 C11.09902252 43.40750031 11.09662609 47.27396145 11.08666992 51.140625 C11.07520605 56.0709028 11.09535803 61.0004616 11.12458706 65.93064499 C11.1430297 69.74506082 11.1426402 73.55930712 11.13694954 77.37375641 C11.13679718 79.19004573 11.14277027 81.00634717 11.15524101 82.82259369 C11.22607977 94.83448535 11.18643472 106.32841191 2.515625 115.703125 C1.83242187 116.47398437 1.14921875 117.24484375 0.4453125 118.0390625 C-7.03808477 124.146682 -14.76297513 126.1586509 -24.21875 127.05859375 C-25.32559143 127.17995193 -26.43243286 127.30131012 -27.57281494 127.42634583 C-31.08334974 127.80754338 -34.59592708 128.16239438 -38.109375 128.515625 C-41.60021813 128.88467218 -45.09045465 129.25912549 -48.58070374 129.63374329 C-50.82117521 129.87336099 -53.06192698 130.11037377 -55.30296326 130.34465027 C-62.11175974 131.0608973 -68.87608609 131.89283341 -75.63989258 132.95898438 C-84.05546533 134.10130828 -91.01538518 134.07232169 -98.19921875 129.0390625 C-103.41744913 124.91301987 -107.14464998 120.01443101 -108.359375 113.328125 C-108.4681229 110.83930339 -108.52678376 108.37759119 -108.53637695 105.88842773 C-108.54294815 105.14473434 -108.54951935 104.40104095 -108.55628967 103.6348114 C-108.57597354 101.1771127 -108.58767738 98.71947512 -108.59765625 96.26171875 C-108.60173178 95.41857683 -108.6058073 94.57543491 -108.61000633 93.70674324 C-108.63085115 89.23963798 -108.64515692 84.77256325 -108.65454102 80.30541992 C-108.66557209 75.71477049 -108.69993804 71.12461022 -108.73971272 66.53413296 C-108.76599598 62.98481919 -108.77424342 59.43561962 -108.77782249 55.88621712 C-108.78266219 54.19550352 -108.79420053 52.50479411 -108.81286049 50.81417656 C-108.94971249 37.58784417 -107.64611178 26.45709567 -98.359375 16.328125 C-92.42325474 10.31160582 -86.88757645 8.44249163 -78.52734375 7.109375 C-77.23376953 6.89925781 -75.94019531 6.68914062 -74.60742188 6.47265625 C-73.25396408 6.25744846 -71.90044799 6.04260702 -70.546875 5.828125 C-59.38753622 4.05191525 -59.38753622 4.05191525 -48.3293457 1.74804688 C-45.02657065 1.04402245 -41.71581836 0.70106315 -38.359375 0.328125 C-34.10333765 -0.15780246 -29.94131655 -0.6801564 -25.796875 -1.796875 C-17.66282873 -3.73653219 -7.3530066 -4.53968233 0 0 Z " fill="#99C4FC" transform="translate(186.359375,168.671875)"/>
<path d="M0 0 C1.11882568 0.07806885 2.23765137 0.1561377 3.39038086 0.23657227 C4.59831299 0.32865967 5.80624512 0.42074707 7.05078125 0.515625 C8.93518921 0.65278931 8.93518921 0.65278931 10.85766602 0.79272461 C21.17873621 1.55415234 31.49092679 2.42886474 41.80078125 3.328125 C42.90575455 3.42389832 42.90575455 3.42389832 44.03305054 3.52160645 C46.14209519 3.70550681 48.25077996 3.89305219 50.359375 4.08203125 C51.56779053 4.18974854 52.77620605 4.29746582 54.02124023 4.40844727 C56.07582193 4.6280289 58.12657694 4.89987767 60.16162109 5.2578125 C64.62208778 5.9652832 69.09149312 6.24582047 73.59375 6.57421875 C90.77354492 7.89159989 107.91627597 9.60052139 125.0637207 11.27954102 C129.79401578 11.74260277 134.52476432 12.20084953 139.25564289 12.65790653 C142.93007469 13.0135274 146.60423062 13.37193477 150.27831078 13.73116875 C152.02492384 13.90154749 153.77162862 14.07098886 155.5184269 14.23945808 C157.9387653 14.47323999 160.35869819 14.71085021 162.77856445 14.94946289 C163.84821945 15.0515657 163.84821945 15.0515657 164.93948364 15.1557312 C168.16553873 15.47767395 171.23721095 15.90679366 174.36328125 16.765625 C176.52136964 17.01316418 178.68369155 17.22464783 180.84765625 17.4140625 C182.16064697 17.53064209 183.4736377 17.64722168 184.82641602 17.76733398 C185.87407639 17.85831863 185.87407639 17.85831863 186.94290161 17.95114136 C189.1367614 18.14267492 191.33001067 18.34017847 193.52319336 18.53930664 C200.40133223 19.16164702 207.28004314 19.76582192 214.1647644 20.31103516 C217.05978721 20.54237887 219.95368887 20.7862119 222.84753418 21.03179932 C224.21968794 21.14491637 225.59234594 21.25209311 226.9654541 21.35296631 C235.79225354 22.00342194 242.74338445 22.71717885 249.60546875 28.73046875 C254.54275558 34.69537269 257.06720993 38.74083808 256.36328125 46.765625 C254.47737494 52.20147259 250.99530445 55.53373608 246.36328125 58.765625 C235.1783574 62.49393295 220.51803082 59.3008314 209.06616211 58.11645508 C193.8416616 56.55296 178.58657072 55.39258267 163.32836914 54.21191406 C151.39714842 53.28312797 139.48872543 52.23287996 127.58554077 50.99511719 C114.40286708 49.63374576 101.2026398 48.48016448 87.99609375 47.37890625 C87.22166553 47.31412457 86.44723732 47.24934288 85.64934158 47.18259811 C75.14912391 46.30566892 64.64641117 45.47354223 54.13897705 44.6879425 C48.68042557 44.27969179 43.22298908 43.85733074 37.76576614 43.43172169 C33.81183881 43.12426839 29.8575693 42.82512112 25.90185547 42.54150391 C21.95546344 42.25811553 18.01113107 41.95414604 14.06737137 41.63628769 C12.5969229 41.5213408 11.12589191 41.41357015 9.65433884 41.31375504 C-0.14738315 40.64381961 -9.79662194 39.5084387 -16.63671875 31.703125 C-21.12870142 25.10552545 -21.42966954 19.71495663 -20.63671875 11.765625 C-18.35815101 6.85794064 -14.97790422 3.86647176 -10.63671875 0.765625 C-6.97968279 -0.25274176 -3.76950321 -0.2711019 0 0 Z " fill="#C2DAFC" transform="translate(790.63671875,367.234375)"/>
<path d="M0 0 C1.59884033 0.02761414 1.59884033 0.02761414 3.22998047 0.05578613 C8.87994933 0.2489107 14.51807871 0.55208181 20.16015625 0.90527344 C21.44473724 0.98316605 22.72931824 1.06105865 24.05282593 1.14131165 C27.51631043 1.35203061 30.97944322 1.56805683 34.44249725 1.78572464 C36.61486094 1.92197753 38.78730685 2.05684523 40.95977783 2.19137573 C63.47257619 3.58786812 85.9629416 5.20039113 108.4486084 6.98406982 C109.98031677 7.10555389 109.98031677 7.10555389 111.54296875 7.22949219 C112.54896118 7.30935364 113.55495361 7.38921509 114.59143066 7.47149658 C127.00413795 8.44996785 139.42600772 9.29771029 151.84912109 10.13208008 C161.64719936 10.79509308 171.43119862 11.56659039 181.21603394 12.40266418 C188.72154439 13.03552406 196.23066531 13.56584838 203.74609375 14.06542969 C207.04700952 14.29377151 210.34775461 14.52442097 213.6484375 14.75610352 C215.88917735 14.90931509 218.13042 15.05532214 220.37207031 15.19458008 C223.68593657 15.40247244 226.99693561 15.63768225 230.30859375 15.87792969 C231.29725433 15.93334427 232.28591492 15.98875885 233.30453491 16.04585266 C240.94676448 16.63958437 248.10356111 18.60167773 253.60678101 24.22322083 C257.66965834 29.27751267 258.40327003 34.05274625 258.0546875 40.43261719 C257.19931012 45.55757058 254.75960317 48.14727853 250.97265625 51.48339844 C245.88225827 55.10026016 241.09278465 54.35502258 235 54.34667969 C233.83081528 54.34525467 232.66163055 54.34382965 231.45701599 54.34236145 C220.69407605 54.26965694 210.03882223 53.56373164 199.32064819 52.63247681 C193.75608963 52.14991739 188.18864196 51.70336946 182.62109375 51.25683594 C181.47764999 51.164673 180.33420624 51.07251007 179.15611267 50.97755432 C164.02211389 49.77875032 148.86519985 48.95252817 133.70727539 48.12280273 C132.67601532 48.06542938 131.64475525 48.00805603 130.58224487 47.94894409 C128.66787456 47.84284457 126.75335085 47.73946025 124.83865356 47.63943481 C121.29020167 47.44337412 117.82048836 47.20348144 114.30175781 46.68896484 C108.6634472 45.90037434 103.00062626 45.61752904 97.3203125 45.26855469 C96.01659195 45.18651794 94.7128714 45.1044812 93.36964417 45.0199585 C89.85806124 44.79941895 86.34624735 44.5827934 82.83435822 44.36719131 C80.65837423 44.23328878 78.48246713 44.09819816 76.30657959 43.96273804 C57.02872545 42.76348912 37.74929127 41.63831988 18.45336914 40.7668457 C-5.14142153 39.6950637 -5.14142153 39.6950637 -13.40234375 33.17089844 C-17.8477399 28.29151903 -18.75830138 23.20445841 -18.68359375 16.80761719 C-18.10353413 11.36955826 -15.82149733 7.51909434 -11.90234375 3.79589844 C-7.70433759 1.06719444 -5.07920728 -0.0890994 0 0 Z " fill="#C2DAFC" transform="translate(788.40234375,464.8291015625)"/>
<path d="M0 0 C3.93118984 0.0054593 7.86227021 -0.00003133 11.79345703 -0.00634766 C14.2921552 -0.00568847 16.7908533 -0.00441065 19.28955078 -0.00244141 C21.05319977 -0.00547775 21.05319977 -0.00547775 22.85247803 -0.00857544 C23.92580383 -0.00542328 24.99912964 -0.00227112 26.10498047 0.00097656 C27.05201843 0.00177216 27.9990564 0.00256775 28.97479248 0.00338745 C31.11767578 0.13037109 31.11767578 0.13037109 32.11767578 1.13037109 C37.90628404 2.02142652 43.64640979 2.34190617 49.49267578 2.56787109 C56.86043284 2.88992901 64.13242541 3.49144844 71.44921875 4.40625 C76.06690647 4.96494834 80.62337134 5.24453524 85.2722168 5.37084961 C94.30222397 5.64813202 101.27672765 6.64048408 108.16455078 13.02880859 C109.97441944 14.98077438 111.56334566 16.97157926 113.11767578 19.13037109 C113.75705078 20.01724609 114.39642578 20.90412109 115.05517578 21.81787109 C117.15693675 28.37041998 117.42871206 36.10870187 114.61767578 42.50537109 C110.74574839 48.9860439 105.30988337 53.08882737 98.11767578 55.13037109 C87.73253912 55.93645633 77.02101383 54.87516723 66.63085938 54.33081055 C63.98994271 54.19272819 61.34877857 54.06055281 58.70751953 53.92919922 C49.82939699 53.47989141 40.96982975 52.96397697 32.11767578 52.13037109 C32.11767578 51.47037109 32.11767578 50.81037109 32.11767578 50.13037109 C23.1384399 50.27203086 14.15928439 50.41836846 5.18017578 50.56787109 C4.51630356 50.57889233 3.85243134 50.58991356 3.16844177 50.60126877 C-12.76860208 50.86653945 -28.70173574 51.15931071 -44.63232422 51.69287109 C-49.38220884 51.84267746 -54.1322276 51.98746891 -58.88232422 52.13037109 C-59.98398926 52.16582031 -61.0856543 52.20126953 -62.22070312 52.23779297 C-65.29541699 52.32851161 -68.36924718 52.39067665 -71.44482422 52.44287109 C-72.30237305 52.4726001 -73.15992188 52.5023291 -74.04345703 52.53295898 C-80.88330939 52.59891371 -85.85252886 50.68290666 -91.08935547 46.27099609 C-96.45918794 39.94739775 -99.62842608 33.96141808 -99.29248047 25.48974609 C-97.93521504 17.68223828 -93.13024326 10.86973825 -86.88232422 6.13037109 C-82.34146542 3.4927642 -78.82396728 2.69119885 -73.59716797 2.43505859 C-72.90079727 2.39728302 -72.20442657 2.35950745 -71.48695374 2.32058716 C-69.26500733 2.20303302 -67.04268842 2.10386317 -64.81982422 2.00537109 C-63.38681915 1.93236619 -61.953875 1.85815531 -60.52099609 1.78271484 C-57.54435713 1.62834323 -54.56744679 1.48602168 -51.58984375 1.3515625 C-48.43310719 1.20783889 -45.27869958 1.04173794 -42.12402344 0.85839844 C-28.0823604 0.06889967 -14.0616636 -0.02334333 0 0 Z " fill="#8FD6C5" transform="translate(583.88232421875,323.86962890625)"/>
<path d="M0 0 C1.49090652 -0.00422974 1.49090652 -0.00422974 3.01193237 -0.00854492 C4.09734314 -0.00652069 5.18275391 -0.00449646 6.30105591 -0.00241089 C7.45004364 -0.00416321 8.59903137 -0.00591553 9.78283691 -0.00772095 C13.60419201 -0.01213954 17.42550107 -0.00919488 21.24685669 -0.00582886 C23.93021704 -0.00650345 26.61357602 -0.00747395 29.29693604 -0.00872803 C34.95130912 -0.01055109 40.60566918 -0.00814875 46.26004028 -0.00338745 C51.98726256 0.00138123 57.71445874 0.00149665 63.44168091 -0.00338745 C118.04798799 -0.04870273 118.04798799 -0.04870273 141.07498169 0.57229614 C141.80731899 0.59171139 142.5396563 0.61112663 143.29418564 0.63113022 C150.7959015 0.83831282 158.29237226 1.15293558 165.78543091 1.56790161 C167.07391937 1.63830658 168.36240784 1.70871155 169.68994141 1.78125 C177.96304425 2.62818428 182.07578239 6.70856251 187.40310669 12.81057739 C191.78710075 18.91317946 191.53219673 24.8646386 191.06716919 32.12698364 C189.86723892 37.90846585 186.94156679 42.91068752 182.23713684 46.5380249 C175.77812225 50.45318592 170.40329128 50.80149996 162.96170044 50.65042114 C161.74095322 50.6462619 160.52020599 50.64210266 159.26246643 50.63781738 C155.85458917 50.62085496 152.44839801 50.5811154 149.04093933 50.53102112 C145.36785059 50.48167179 141.69458527 50.45873159 138.02127075 50.43264771 C133.1004246 50.39533596 128.17971183 50.35278461 123.2590332 50.2973938 C110.45164065 50.15376096 97.64511494 50.08740863 84.83699036 50.04937744 C76.08164715 50.02307598 67.32640696 49.98047064 58.57115269 49.93344688 C52.32377635 49.9001547 46.07649064 49.87232465 39.82904053 49.8576355 C33.86780703 49.84268664 27.90698796 49.80800126 21.94594002 49.75905228 C19.72700606 49.74407949 17.50801435 49.73591426 15.28903008 49.7349968 C12.22277319 49.73264199 9.15764477 49.70568552 6.09158325 49.67288208 C5.20361966 49.67791433 4.31565607 49.68294659 3.40078449 49.68813133 C-3.6860906 49.57046619 -9.51741151 47.66249831 -15.23751831 43.41604614 C-15.75572144 42.86690552 -16.27392456 42.31776489 -16.80783081 41.75198364 C-17.34150269 41.20799927 -17.87517456 40.66401489 -18.42501831 40.10354614 C-23.73521906 33.14250578 -23.64308378 26.57110228 -22.93283081 18.12698364 C-21.54178974 11.5427226 -16.66720316 6.08010675 -11.30783081 2.25198364 C-7.48703142 0.4421313 -4.21084027 0.00184309 0 0 Z " fill="#CBDEFA" transform="translate(508.9328308105469,519.8730163574219)"/>
<path d="M0 0 C0 0.66 0 1.32 0 2 C0.66 2 1.32 2 2 2 C5.82563947 8.33621536 7.24118931 13.59603597 6 21 C3.43642968 27.43619783 -1.28940889 32.04705731 -7.375 35.25 C-15.27405946 37.50687413 -23.82414406 37.38181682 -31.97265625 37.796875 C-33.3817015 37.87106516 -34.79072815 37.94560925 -36.19973755 38.02047729 C-39.23013369 38.18126742 -42.26059249 38.34078875 -45.29110718 38.49932861 C-74.60102166 40.03568776 -103.89705592 41.75494167 -133.1875 43.625 C-134.42002439 43.70354469 -134.42002439 43.70354469 -135.67744827 43.78367615 C-172.27564008 46.10132853 -172.27564008 46.10132853 -208.859375 48.6328125 C-230.30104562 50.18108128 -230.30104562 50.18108128 -240.5 50.3125 C-241.19319336 50.33006348 -241.88638672 50.34762695 -242.60058594 50.36572266 C-247.11555169 50.36001329 -250.18291809 49.39049574 -254 47 C-255.64453125 45.31640625 -255.64453125 45.31640625 -256.8125 43.5625 C-257.40998047 42.69818359 -257.40998047 42.69818359 -258.01953125 41.81640625 C-260.2425497 37.69806529 -260.38469628 33.61635532 -260 29 C-257.80251351 22.15602101 -253.38281701 17.273054 -247.02758789 13.97705078 C-242.62418705 12.55600327 -238.28115167 12.41272773 -233.6796875 12.140625 C-232.09837036 12.03616562 -232.09837036 12.03616562 -230.48510742 11.92959595 C-228.17272334 11.77717896 -225.86010677 11.62825918 -223.54730225 11.48236084 C-217.15524131 11.07791029 -210.76511867 10.6448323 -204.375 10.2109375 C-203.6930444 10.16486988 -203.01108879 10.11880226 -202.30846786 10.07133865 C-190.74060568 9.28783782 -179.18196039 8.40652518 -167.625 7.4765625 C-166.80579197 7.41065414 -165.98658394 7.34474579 -165.14255142 7.27684021 C-157.0332932 6.62327511 -148.92471978 5.96143518 -140.8164463 5.29577637 C-137.02099537 4.98457726 -133.22538414 4.67537419 -129.4296875 4.3671875 C-128.33096628 4.27781166 -128.33096628 4.27781166 -127.21004868 4.18663025 C-115.11429699 3.20671849 -103.01269604 2.37536757 -90.89889526 1.65255737 C-83.82772259 1.23885909 -83.82772259 1.23885909 -76.78710938 0.48974609 C-72.08136798 -0.11879679 -67.38264943 -0.424088 -62.6484375 -0.71875 C-61.67194244 -0.78155151 -60.69544739 -0.84435303 -59.68936157 -0.90905762 C-56.58471428 -1.10830486 -53.47987173 -1.30428435 -50.375 -1.5 C-47.29922524 -1.69589382 -44.22349569 -1.89247508 -41.14779663 -2.08955383 C-39.16138909 -2.21650986 -37.17491889 -2.34248948 -35.18838501 -2.467453 C-30.9895115 -2.73335174 -26.7928859 -3.00719209 -22.59912109 -3.3449707 C-21.36500488 -3.44382568 -20.13088867 -3.54268066 -18.859375 -3.64453125 C-17.31588379 -3.77758667 -17.31588379 -3.77758667 -15.74121094 -3.91333008 C-9.96378554 -4.09599716 -5.06603746 -2.66811306 0 0 Z " fill="#EEEFF4" transform="translate(338,439)"/>
<path d="M0 0 C1.06734375 -0.020625 2.1346875 -0.04125 3.234375 -0.0625 C10.50296861 -0.09866216 15.07630328 0.60475058 20.625 5.625 C27.20331296 12.89576696 28.55744611 17.66341497 28.33984375 27.44140625 C27.65280765 35.14094877 23.85681204 40.03330046 18.13671875 44.9609375 C12.27927201 48.49468051 6.2410306 49.77221496 -0.5 50.3125 C-1.79574951 50.42754883 -1.79574951 50.42754883 -3.11767578 50.54492188 C-14.7851083 51.50436978 -26.49285524 51.95214001 -38.18530273 52.49804688 C-48.21760982 52.97220905 -58.20391369 53.60004949 -68.20263672 54.56811523 C-75.91922093 55.29833841 -83.63525727 55.65049306 -91.38110352 55.90844727 C-96.33397959 56.08274072 -101.09103003 56.53421983 -106 57.25 C-109.97543899 57.60751927 -113.95224362 57.84476653 -117.9375 58.0625 C-118.98357422 58.13919922 -120.02964844 58.21589844 -121.10742188 58.29492188 C-128.86936322 58.6998503 -134.12474674 57.66141986 -140.0234375 52.46875 C-140.46945312 51.9015625 -140.91546875 51.334375 -141.375 50.75 C-141.83648437 50.1828125 -142.29796875 49.615625 -142.7734375 49.03125 C-146.88285091 43.06343945 -146.77694886 37.34885903 -146 30.25 C-143.81989523 22.90862392 -139.38900952 17.41722594 -133 13.25 C-128.17515979 10.93285308 -124.27090935 9.80065943 -118.87890625 9.3359375 C-118.21648422 9.27596588 -117.55406219 9.21599426 -116.87156677 9.15420532 C-114.76933463 8.96681741 -112.66613455 8.79583386 -110.5625 8.625 C-109.18805961 8.50363518 -107.8137093 8.38124575 -106.43945312 8.2578125 C-98.13497545 7.52614588 -89.82785287 6.97048535 -81.50366211 6.51806641 C-78.09319451 6.3109833 -78.09319451 6.3109833 -75.12745667 5.76229858 C-72.22473211 5.28681264 -69.3894924 4.99318098 -66.45703125 4.78515625 C-65.39572998 4.70837646 -64.33442871 4.63159668 -63.2409668 4.55249023 C-61.54387573 4.43369507 -61.54387573 4.43369507 -59.8125 4.3125 C-58.6366333 4.22750244 -57.4607666 4.14250488 -56.24926758 4.05493164 C-51.23125183 3.69229184 -46.21277596 3.3362045 -41.19433594 2.97949219 C-37.52522455 2.71775272 -33.85636235 2.45270382 -30.1875 2.1875 C-28.49040894 2.06870483 -28.49040894 2.06870483 -26.7590332 1.94750977 C-25.69773193 1.87072998 -24.63643066 1.7939502 -23.54296875 1.71484375 C-22.61508545 1.649021 -21.68720215 1.58319824 -20.73120117 1.51538086 C-5.40414808 0.026107 -5.40414808 0.026107 0 0 Z " fill="#D2E3FC" transform="translate(561,226.75)"/>
<path d="M0 0 C0.94971176 0.00379166 1.89942352 0.00758331 2.87791443 0.01148987 C6.32626897 0.02938591 9.77439907 0.05832649 13.22265625 0.08984375 C14.23131618 0.09903965 14.23131618 0.09903965 15.26035309 0.10842133 C25.70793059 0.20526968 36.15512049 0.32928622 46.60229492 0.4621582 C50.03066063 0.50568993 53.45904018 0.54735416 56.88745117 0.5871582 C66.14222442 0.6949572 75.39651979 0.81724334 84.65065956 0.97067833 C88.92400918 1.04093649 93.1971951 1.10278473 97.47088623 1.14825439 C101.75247167 1.19395981 106.0334025 1.25839411 110.31452751 1.3358326 C111.91679523 1.36160035 113.51918478 1.38077967 115.12161446 1.39282036 C124.74641341 1.46991877 132.12925072 1.64321987 139.68359375 8.23828125 C140.31523438 8.97304688 140.946875 9.7078125 141.59765625 10.46484375 C142.24476563 11.19445312 142.891875 11.9240625 143.55859375 12.67578125 C147.99069681 19.10545189 148.23934849 26.54863954 147.22265625 34.08984375 C144.5373684 40.81653473 140.60076668 45.32773436 134.51306152 49.16841125 C131.3403685 50.44478906 128.61798015 50.3366183 125.20117188 50.33276367 C124.50119583 50.33466202 123.80121979 50.33656036 123.08003235 50.33851624 C120.76287651 50.34222219 118.44603439 50.33150533 116.12890625 50.3203125 C114.50101762 50.31911831 112.8731283 50.31866804 111.24523926 50.31892395 C107.82214066 50.31735831 104.3991465 50.30907543 100.97607422 50.2956543 C96.6480822 50.27887719 92.32020612 50.27491925 87.99218559 50.27547646 C57.31998064 50.27444279 57.31998064 50.27444279 43.99478149 49.45420837 C37.92056217 49.08623185 31.86200751 48.99146552 25.77734375 48.94921875 C23.83723733 48.92991284 21.89713313 48.91038187 19.95703125 48.890625 C17.00596988 48.86150918 14.05570778 48.83983691 11.10449219 48.83935547 C-10.89493901 48.81415154 -10.89493901 48.81415154 -20.21484375 41.0625 C-25.82064725 34.20940522 -27.25846922 28.86896887 -27.09375 19.99609375 C-26.38656719 13.50048865 -22.58881392 9.32851985 -17.77734375 5.08984375 C-11.63260368 0.6656309 -7.42576427 -0.05703562 0 0 Z " fill="#D0E1FC" transform="translate(441.77734375,614.91015625)"/>
<path d="M0 0 C1.0027446 -0.01132462 2.0054892 -0.02264923 3.03862 -0.03431702 C11.20738896 -0.02440285 17.98503539 1.90703546 24.32421875 7.21484375 C30.15114199 13.6096451 31.27520761 20.08742582 30.90625 28.58203125 C29.77137735 35.6654646 26.45885977 40.89201306 20.76171875 45.21484375 C15.30184881 48.39149535 11.1739749 49.51240165 4.87646484 49.51782227 C3.77464119 49.53048126 3.77464119 49.53048126 2.65055847 49.543396 C0.21625067 49.56920138 -2.21793382 49.58135418 -4.65234375 49.59375 C-6.37739967 49.60997332 -8.10244678 49.62715812 -9.82748413 49.64524841 C-14.39412169 49.69099574 -18.9607731 49.7256793 -23.52752686 49.75744629 C-31.59006951 49.81529317 -39.65246111 49.89218595 -47.71484375 49.96875 C-48.59443693 49.97676636 -49.47403011 49.98478271 -50.38027763 49.99304199 C-66.91778362 50.1470547 -83.44020088 50.56262698 -99.96937561 51.09777832 C-105.76682944 51.28088872 -111.5649896 51.43597275 -117.36328125 51.58984375 C-118.84309982 51.63506416 -118.84309982 51.63506416 -120.35281372 51.68119812 C-127.78182176 51.8493344 -132.29370145 49.29658442 -137.69921875 44.37109375 C-138.14523437 43.82453125 -138.59125 43.27796875 -139.05078125 42.71484375 C-139.51226562 42.16828125 -139.97375 41.62171875 -140.44921875 41.05859375 C-144.53029677 34.92397965 -144.50489632 28.348688 -143.67578125 21.21484375 C-141.05889036 13.9950287 -135.0113561 9.14947716 -128.55078125 5.40234375 C-117.32023281 1.18450313 -102.18836082 2.82760181 -90.3203125 2.4609375 C-88.24883083 2.39524505 -86.17735366 2.32941069 -84.10588074 2.26344299 C-79.77320231 2.12619225 -75.44046129 1.99117509 -71.10766602 1.85766602 C-66.71790935 1.72220318 -62.32827424 1.58354257 -57.9387207 1.44165039 C-16.26716113 0.09517131 -16.26716113 0.09517131 0 0 Z " fill="#B3DBD7" transform="translate(558.67578125,422.78515625)"/>
<path d="M0 0 C0.81163605 0.00288025 1.62327209 0.0057605 2.45950317 0.00872803 C5.14284841 0.02370731 7.82481987 0.06805396 10.5078125 0.11328125 C12.40233089 0.131066 14.29686345 0.14739384 16.19140625 0.16235352 C21.27434949 0.2094941 26.35642542 0.28558004 31.43884277 0.37182617 C34.67305031 0.42646098 37.90730489 0.47634037 41.14160156 0.52539062 C61.65696261 0.84338645 82.14835608 1.20824683 102.6328125 2.42578125 C102.0579241 5.68241756 101.2866782 8.55077819 99.9609375 11.578125 C99.62868164 12.34769531 99.29642578 13.11726562 98.95410156 13.91015625 C98.60057617 14.7196875 98.24705078 15.52921875 97.8828125 16.36328125 C94.47823385 24.2961621 91.45022675 32.26430366 88.6328125 40.42578125 C87.86616196 42.55229388 87.09563794 44.67741612 86.3203125 46.80078125 C85.75778382 48.34243745 85.19527863 49.88410223 84.6328125 51.42578125 C68.33188357 51.55153384 52.06791639 51.24375085 35.77661133 50.68115234 C31.91185108 50.54964263 28.04682202 50.43090392 24.18164062 50.3125 C21.68226558 50.22863849 19.18291545 50.14403021 16.68359375 50.05859375 C15.54900223 50.02516876 14.41441071 49.99174377 13.24543762 49.95730591 C0.83387172 49.50143543 -9.24724434 49.06026904 -18.0546875 39.61328125 C-22.90859267 33.78215181 -24.97197347 28.49925644 -24.71875 20.9140625 C-23.79282355 14.36056086 -19.91126204 9.07553194 -15.3671875 4.42578125 C-10.16679859 0.87852016 -6.32683351 -0.14753338 0 0 Z " fill="#8FE1CD" transform="translate(509.3671875,711.57421875)"/>
<path d="M0 0 C1.46548259 2.74274516 2.45730928 5.32376761 3.21875 8.3359375 C3.42886719 9.15320313 3.63898438 9.97046875 3.85546875 10.8125 C4.06816406 11.658125 4.28085937 12.50375 4.5 13.375 C6.16049112 19.94559717 6.16049112 19.94559717 8.1484375 26.421875 C9.03387095 29.10254507 9.16487679 31.19709451 9 34 C9.66 34 10.32 34 11 34 C11.24234375 34.845625 11.4846875 35.69125 11.734375 36.5625 C13.44055153 42.33725134 15.16417529 47.78211523 18.0234375 53.0859375 C19.06214451 55.12180324 19.83637831 57.16774382 20.625 59.3125 C23.07592329 65.68490056 26.43968338 71.60893536 29.73486328 77.57543945 C30.16911621 78.37554443 30.60336914 79.17564941 31.05078125 80 C31.44950439 80.721875 31.84822754 81.44375 32.2590332 82.1875 C32.50355225 82.785625 32.74807129 83.38375 33 84 C32.67 84.66 32.34 85.32 32 86 C31.34330322 85.8460376 30.68660645 85.6920752 30.01000977 85.53344727 C26.29581129 84.87520056 22.60027941 84.65444405 18.83984375 84.46484375 C18.04956284 84.42310532 17.25928192 84.38136688 16.4450531 84.33836365 C8.62366763 83.9455228 0.8011845 83.76719271 -7.02786255 83.61239624 C-20.29959937 83.33757906 -33.57129597 82.96211713 -46.82962036 82.29684448 C-48.290675 82.2252964 -49.75201251 82.15925901 -51.21359253 82.09939575 C-71.87120199 81.23555895 -90.86327608 74.46398063 -106 60 C-106 59.34 -106 58.68 -106 58 C-106.99 57.67 -107.98 57.34 -109 57 C-107.86159668 56.98541748 -106.72319336 56.97083496 -105.55029297 56.95581055 C-101.25963488 56.89711157 -96.96946313 56.81989482 -92.67919922 56.73754883 C-90.83487946 56.70463175 -88.99046698 56.67650071 -87.14599609 56.65356445 C-60.21488451 56.30979415 -38.36267873 49.36267873 -19 30 C-18.33097656 29.33097656 -17.66195312 28.66195312 -16.97265625 27.97265625 C-9.49700835 19.9545577 -4.10837323 10.09975087 0 0 Z " fill="#B7D5FC" transform="translate(588,904)"/>
<path d="M0 0 C9.13504246 6.00745165 15.4657632 12.90607678 18.90234375 23.328125 C20.88729512 34.12009362 19.772887 44.35620448 13.94921875 53.6875 C7.58201471 62.76887413 0.60269106 66.58155622 -9.6953125 70.515625 C-10.0253125 78.765625 -10.3553125 87.015625 -10.6953125 95.515625 C-15.3153125 95.515625 -19.9353125 95.515625 -24.6953125 95.515625 C-25.1903125 82.645625 -25.1903125 82.645625 -25.6953125 69.515625 C-28.3353125 68.525625 -30.9753125 67.535625 -33.6953125 66.515625 C-42.62622439 62.10669381 -49.05104544 54.38752692 -52.6953125 45.140625 C-55.499095 34.96325865 -54.27538964 24.19639574 -49.32421875 14.95703125 C-44.5223073 7.39142975 -37.89555774 1.4032585 -29.40234375 -1.6796875 C-20.25448735 -3.66541818 -8.55931534 -4.20561515 0 0 Z " fill="#F0F4FD" transform="translate(882.6953125,666.484375)"/>
<path d="M0 0 C28.69204709 -0.27856356 28.69204709 -0.27856356 39.73583984 1.22485352 C44.21890469 1.83341198 48.61430676 2.12371918 53.13696289 2.24267578 C62.17203096 2.50964855 69.15669495 3.50792699 76.046875 9.8984375 C77.85674366 11.85040329 79.44566988 13.84120817 81 16 C81.639375 16.886875 82.27875 17.77375 82.9375 18.6875 C85.03926096 25.24004889 85.31103628 32.97833078 82.5 39.375 C78.6280726 45.85567281 73.19220759 49.95845627 66 52 C55.61486334 52.80608524 44.90333805 51.74479614 34.51318359 51.20043945 C31.87226693 51.0623571 29.23110279 50.93018172 26.58984375 50.79882812 C24.869774 50.71128398 23.14972126 50.62340473 21.4296875 50.53515625 C20.66059052 50.49656998 19.89149353 50.4579837 19.09909058 50.41822815 C12.71258008 50.08003957 6.38316743 49.53193062 0 49 C0 32.83 0 16.66 0 0 Z " fill="#4288FD" transform="translate(616,327)"/>
<path d="M0 0 C11.88 0.2165625 11.88 0.2165625 24 0.4375 C27.69703125 0.50215454 27.69703125 0.50215454 31.46875 0.56811523 C69.05837011 1.26205737 69.05837011 1.26205737 76.1796875 8.08984375 C82.60901419 14.96533368 84.37866475 19.74645486 84.18359375 29.1328125 C83.7732786 35.54071295 81.28566204 40.33782172 77 45 C69.61786562 51.1263501 61.32386791 50.65417478 52.24609375 50.48828125 C50.73439206 50.47893884 49.22267509 50.47182949 47.71095276 50.46684265 C43.76013314 50.44788457 39.81025399 50.39888396 35.85980225 50.34332275 C31.10495179 50.28281933 26.3497843 50.26016047 21.5946579 50.23105621 C14.39578744 50.18280864 7.19897449 50.08692081 0 50 C0 33.5 0 17 0 0 Z " fill="#357DFD" transform="translate(616,520)"/>
<path d="M0 0 C7.13859789 3.99477829 10.75638023 9.71072915 13.359375 17.3203125 C13.89738535 20.71643896 13.94503501 24.03862627 13.92578125 27.47265625 C13.93507912 28.88291832 13.93507912 28.88291832 13.94456482 30.32167053 C13.951625 32.297363 13.948556 34.27311545 13.93579102 36.2487793 C13.92192472 39.24706059 13.95605416 42.24221564 13.99414062 45.24023438 C14.0751577 65.1715767 14.0751577 65.1715767 6.61889648 73.19262695 C1.00227061 78.57099715 -4.41385907 80.483773 -12.078125 80.7578125 C-20.70737668 80.50110707 -25.14155555 78.17665988 -31.015625 71.9453125 C-36.64203794 65.60158795 -36.95709733 59.29026061 -36.9765625 51.171875 C-36.9832193 50.20051605 -36.9898761 49.2291571 -36.99673462 48.22836304 C-37.00683167 46.17927943 -37.01155255 44.13016314 -37.01123047 42.08105469 C-37.01560115 38.9623342 -37.05194567 35.84503275 -37.08984375 32.7265625 C-37.09571319 30.72917147 -37.09968173 28.73177377 -37.1015625 26.734375 C-37.11593353 25.81016754 -37.13030457 24.88596008 -37.14511108 23.93374634 C-37.09303321 16.4777465 -35.17576009 11.34839052 -30.390625 5.6328125 C-20.77339843 -2.45440075 -11.87589173 -5.27407614 0 0 Z " fill="#287BFA" transform="translate(950.640625,831.6796875)"/>
<path d="M0 0 C6.56698029 3.76915106 11.24171702 9.10159317 13.4296875 16.39453125 C13.85956914 19.88612523 13.87420083 23.34441436 13.86328125 26.859375 C13.8685231 27.85151505 13.87376495 28.84365509 13.87916565 29.86585999 C13.88556529 31.95605538 13.88427564 34.04628688 13.87573242 36.13647461 C13.86722273 39.31885453 13.89601316 42.49943766 13.92773438 45.68164062 C13.92934672 47.72005155 13.92876823 49.75846563 13.92578125 51.796875 C13.94263222 53.21129128 13.94263222 53.21129128 13.95982361 54.65428162 C13.88292758 62.01322786 12.16222626 67.31492585 7.24609375 72.85546875 C6.50230469 73.48710938 5.75851562 74.11875 4.9921875 74.76953125 C3.88037109 75.74019531 3.88037109 75.74019531 2.74609375 76.73046875 C-3.80009398 81.43312638 -10.78366887 81.08314599 -18.5703125 80.39453125 C-25.2044424 78.7201023 -29.82687054 73.95757032 -33.5703125 68.39453125 C-36.56508752 62.62145972 -37.03761044 57.88942367 -37.0390625 51.4375 C-37.04667603 50.49449539 -37.05428955 49.55149078 -37.06213379 48.57991028 C-37.07289744 46.59228144 -37.07580316 44.60459622 -37.07128906 42.61694336 C-37.07031863 39.60107388 -37.1119442 36.5877673 -37.15625 33.57226562 C-37.28278751 13.4831334 -37.28278751 13.4831334 -29.59399414 5.28808594 C-20.75680696 -3.23433966 -11.11260685 -4.89854788 0 0 Z " fill="#2D82FA" transform="translate(804.5703125,831.60546875)"/>
<path d="M0 0 C0 15.84 0 31.68 0 48 C-25.55852156 48 -25.55852156 48 -33.0703125 41.09765625 C-39.23984137 34.5909264 -40.48053216 28.74716568 -40.31640625 19.90625 C-39.60922344 13.4106449 -35.81147017 9.2386761 -31 5 C-20.14638322 -2.81460408 -17.1607122 0 0 0 Z " fill="#67A0FD" transform="translate(455,615)"/>
<path d="M0 0 C0 15.84 0 31.68 0 48 C-5.6925 48.37125 -5.6925 48.37125 -11.5 48.75 C-12.68013672 48.83862305 -13.86027344 48.92724609 -15.07617188 49.01855469 C-22.8805097 49.43222148 -28.1002089 48.43302073 -34.0234375 43.21875 C-34.46945312 42.6515625 -34.91546875 42.084375 -35.375 41.5 C-35.83648437 40.9328125 -36.29796875 40.365625 -36.7734375 39.78125 C-40.88285091 33.81343945 -40.77694886 28.09885903 -40 21 C-37.37361174 12.15579024 -31.56849805 6.63567195 -23.75 2.125 C-15.97799149 -0.20660255 -8.063535 0 0 0 Z " fill="#68A0FC" transform="translate(455,236)"/>
<path d="M0 0 C0 15.51 0 31.02 0 47 C-5.6925 47.1546875 -5.6925 47.1546875 -11.5 47.3125 C-12.68013672 47.35802002 -13.86027344 47.40354004 -15.07617188 47.45043945 C-23.37784252 47.55904504 -27.95881776 45.68231277 -34.0234375 40.15625 C-34.46945312 39.6096875 -34.91546875 39.063125 -35.375 38.5 C-35.83648437 37.9534375 -36.29796875 37.406875 -36.7734375 36.84375 C-40.85451552 30.7091359 -40.82911507 24.13384425 -40 17 C-37.86219496 11.10194859 -33.21051267 6.38383869 -28 3 C-21 0 -21 0 0 0 Z " fill="#689DEC" transform="translate(455,427)"/>
<path d="M0 0 C0.33 0 0.66 0 1 0 C1 27.72 1 55.44 1 84 C1.66 84 2.32 84 3 84 C1.92598892 86.91517292 1.22189824 88.77810176 -1 91 C-1.1511823 60.65189701 -0.74788013 30.33887137 0 0 Z " fill="#C6DDFC" transform="translate(616,617)"/>
<path d="M0 0 C0.33 0.66 0.66 1.32 1 2 C-0.66305298 3.90063198 -2.32650966 5.8008855 -3.9921875 7.69921875 C-5.29725428 9.19471356 -6.59460214 10.69699214 -7.8828125 12.20703125 C-8.77613281 13.24923828 -8.77613281 13.24923828 -9.6875 14.3125 C-10.22761719 14.94800781 -10.76773438 15.58351563 -11.32421875 16.23828125 C-13.07789832 18.08189311 -14.92655513 19.53187455 -17 21 C-17.66 20.67 -18.32 20.34 -19 20 C-18.3498291 19.35768433 -18.3498291 19.35768433 -17.68652344 18.70239258 C-15.70499954 16.74178536 -13.72747941 14.7771861 -11.75 12.8125 C-11.06808594 12.13896484 -10.38617187 11.46542969 -9.68359375 10.77148438 C-6.22468165 7.32936311 -2.94363181 3.90714016 0 0 Z " fill="#276EF8" transform="translate(1025,957)"/>
<path d="M0 0 C0.33 0 0.66 0 1 0 C1 9.24 1 18.48 1 28 C1.66 28 2.32 28 3 28 C2.01 30.475 2.01 30.475 1 33 C0.67 33 0.34 33 0 33 C0 22.11 0 11.22 0 0 Z " fill="#B1D2FB" transform="translate(616,673)"/>
<path d="M0 0 C0.66 0.33 1.32 0.66 2 1 C-3.23997039 5.10084639 -10.0668685 10 -17 10 C-17 9.34 -17 8.68 -17 8 C-14.21443118 6.63301613 -11.42068672 5.28365462 -8.625 3.9375 C-7.8309375 3.54755859 -7.036875 3.15761719 -6.21875 2.75585938 C-5.45820312 2.39169922 -4.69765625 2.02753906 -3.9140625 1.65234375 C-2.8614624 1.14175415 -2.8614624 1.14175415 -1.78759766 0.62084961 C-1.19769043 0.41596924 -0.6077832 0.21108887 0 0 Z " fill="#2B75F8" transform="translate(990,988)"/>
<path d="M0 0 C1.67110042 2.96178773 2.32682752 5.37071192 2.625 8.75 C2.69976563 9.54921875 2.77453125 10.3484375 2.8515625 11.171875 C2.92503906 12.07679688 2.92503906 12.07679688 3 13 C1 10 1 10 0 7 C-0.99 7.495 -0.99 7.495 -2 8 C-1.47731534 5.23723823 -0.89130413 2.6739124 0 0 Z " fill="#96C3FB" transform="translate(588,904)"/>
</svg>
